<svg version="1.1" id="Layer_1" xmlns="http://www.w3.org/2000/svg" xmlns:xlink="http://www.w3.org/1999/xlink" x="0px" y="0px"
	 width="100%" viewBox="0 0 1000 1000" enable-background="new 0 0 1000 1000" xml:space="preserve">
<path fill="#FFFFFF" opacity="1.000000" stroke="none" 
	d="
M546.000000,1001.000000 
	C516.312439,1001.000000 486.624878,1001.000000 456.771545,1000.621948 
	C455.927216,999.835266 455.284790,999.153564 454.564819,999.058350 
	C441.498718,997.331177 428.270721,996.430847 415.384521,993.831055 
	C394.422302,989.601929 373.416290,985.181763 352.911224,979.190979 
	C322.381958,970.271484 293.124176,957.930115 265.127838,942.662903 
	C241.293350,929.665222 218.089798,915.692810 197.085190,898.441895 
	C180.263290,884.626160 163.409103,870.753967 147.652420,855.767883 
	C135.545013,844.252563 124.740768,831.281189 114.063683,818.372742 
	C103.941353,806.135132 94.013206,793.614380 85.292984,780.366821 
	C70.536537,757.949158 56.711269,734.897278 46.056004,710.155151 
	C40.481331,697.210571 34.636662,684.317932 30.144611,670.987122 
	C23.849806,652.306274 18.291410,633.348145 13.222920,614.294495 
	C10.323654,603.395508 8.791503,592.107422 7.063929,580.929565 
	C5.423779,570.317383 4.364758,559.616028 2.923394,548.971069 
	C2.824494,548.240662 1.665830,547.653687 1.000007,547.000000 
	C1.000000,516.645752 1.000000,486.291534 1.375757,455.771301 
	C2.166793,454.761444 2.840705,453.951904 2.957923,453.068512 
	C4.349145,442.583588 5.689370,432.091583 6.980815,421.593811 
	C9.844837,398.313049 15.550138,375.636047 22.424040,353.303345 
	C31.782663,322.898041 43.356945,293.268433 59.210571,265.625519 
	C70.332260,246.233368 82.597618,227.477982 94.801270,208.730530 
	C109.040962,186.855301 126.708023,167.707474 144.741180,149.003342 
	C154.773788,138.597473 165.691269,128.941727 176.910110,119.807953 
	C191.738266,107.735687 206.967941,96.104233 222.571548,85.055107 
	C233.044586,77.639008 244.169388,70.999794 255.529297,65.012268 
	C273.985382,55.284500 292.478394,45.436821 311.680573,37.363564 
	C334.575714,27.737633 358.174561,19.731962 382.635193,14.737530 
	C395.435883,12.123858 408.198914,9.274408 421.073914,7.091809 
	C431.656128,5.297890 442.383087,4.364753 453.028717,2.923370 
	C453.759247,2.824462 454.346252,1.665800 455.000000,0.999992 
	C485.354218,1.000000 515.708435,1.000000 546.228638,1.375717 
	C547.238586,2.166739 548.050598,2.852386 548.931335,2.956508 
	C560.751221,4.353906 572.759827,4.801483 584.369080,7.194453 
	C605.944397,11.641651 627.549988,16.320496 648.666016,22.526081 
	C679.180359,31.493650 708.730164,43.356277 736.373474,59.209717 
	C755.765808,70.331284 774.530701,82.583046 793.266602,94.804070 
	C815.407654,109.246216 834.652100,127.291512 853.737000,145.414581 
	C861.727661,153.002441 868.900330,161.475342 876.196472,169.764496 
	C883.866882,178.478851 891.929504,186.968887 898.592590,196.422546 
	C910.649109,213.528488 922.598511,230.809860 933.095337,248.887421 
	C943.966187,267.609344 954.005676,286.949066 962.689392,306.771790 
	C973.498047,331.445343 981.755798,357.162506 987.738953,383.490265 
	C990.564026,395.921356 992.869080,408.487610 994.920959,421.072296 
	C996.648560,431.667938 997.635254,442.383423 999.076660,453.028687 
	C999.175598,453.759186 1000.334167,454.346222 1001.000000,455.000000 
	C1001.000000,485.354218 1001.000000,515.708435 1000.624268,546.228699 
	C999.838379,547.071960 999.156006,547.712280 999.058350,548.431946 
	C997.330872,561.164062 996.398010,574.053101 993.840149,586.612305 
	C989.572449,607.566528 985.131226,628.557983 979.209717,649.085754 
	C970.389709,679.661682 957.891724,708.856384 942.657776,736.863281 
	C929.686890,760.709534 915.727417,783.918518 898.456848,804.914673 
	C884.838684,821.470703 871.095520,837.974060 856.510803,853.667053 
	C847.024231,863.874390 836.344543,873.104736 825.454224,881.844177 
	C809.533936,894.620056 793.299561,907.071594 776.555786,918.738159 
	C753.158569,935.040771 728.015625,948.339050 701.825378,959.701477 
	C673.930481,971.803589 645.306702,981.466858 615.629211,988.242981 
	C593.443848,993.308472 571.179077,997.449463 548.466492,999.078186 
	C547.602783,999.140076 546.820312,1000.333679 546.000000,1001.000000 
M352.736969,272.501862 
	C352.737061,268.169189 352.934052,263.824463 352.669617,259.507996 
	C352.486206,256.514160 353.707916,255.122299 356.300415,253.883118 
	C371.460236,246.636887 386.532227,239.206970 401.637604,231.846786 
	C409.153534,228.184586 409.961395,226.267044 407.449493,218.070480 
	C347.359039,218.070480 287.293732,218.070480 227.271759,218.070480 
	C226.107788,228.116394 226.103058,228.125946 234.548676,232.310211 
	C248.564392,239.254074 262.514984,246.336227 276.652283,253.023438 
	C280.660858,254.919586 282.050110,257.112274 282.044525,261.651672 
	C281.894379,383.796844 281.955444,505.942261 281.879059,628.087585 
	C281.871155,640.742676 281.581238,653.419678 280.786591,666.046570 
	C279.834778,681.171326 278.031494,696.195190 271.977478,710.376465 
	C267.276123,721.389343 259.155396,727.851929 247.460327,730.128723 
	C235.367218,732.483032 223.628860,730.734802 211.937241,727.587952 
	C207.541367,726.404785 203.039246,725.616394 198.084366,724.539001 
	C195.575806,738.120178 192.616852,750.618286 191.108566,763.289124 
	C189.579712,776.132812 196.081528,783.050293 209.019943,784.028625 
	C224.855560,785.226074 239.819901,782.226196 252.154999,771.869446 
	C263.223785,762.576050 273.618011,752.435486 283.882080,742.238037 
	C297.432068,728.776062 308.723511,713.585571 317.158142,696.336121 
	C336.082153,657.635376 344.823975,616.170349 348.701019,573.761475 
	C351.425934,543.955200 352.338135,513.911804 352.566223,483.962952 
	C353.100494,413.812622 352.736847,343.655396 352.736969,272.501862 
M634.274048,579.239563 
	C636.458130,581.078369 639.211792,584.869934 640.730408,584.427002 
	C648.385803,582.194153 655.719360,578.857422 663.165833,575.908081 
	C663.159058,575.321594 663.152283,574.735107 663.145508,574.148560 
	C661.965698,573.217834 660.678101,572.395203 659.621338,571.341003 
	C611.992920,523.828735 618.406738,443.672821 672.886169,404.238464 
	C675.791382,402.135620 677.754944,402.070312 680.639160,404.247803 
	C699.682861,418.625183 713.093201,436.993073 720.690796,459.626434 
	C721.232849,461.241089 722.006592,463.468750 723.282654,464.034058 
	C731.543396,467.693604 739.973633,470.970703 748.400146,474.394226 
	C744.327454,435.047607 715.086426,392.976807 679.358582,375.334351 
	C677.752014,374.540985 674.873474,374.999542 673.162720,375.931274 
	C599.552734,416.021790 580.756104,513.191956 634.274048,579.239563 
M735.922058,486.586761 
	C707.957825,473.116058 678.777039,469.589478 648.424988,476.019196 
	C647.100281,476.299805 645.060486,477.560638 644.953186,478.540131 
	C644.131165,486.040497 643.705994,493.584320 643.106873,501.809357 
	C646.168518,501.070526 647.765198,500.696442 649.356201,500.299530 
	C664.249634,496.583862 679.324280,495.692322 694.438660,498.309662 
	C741.266479,506.418823 775.958313,540.598572 785.523132,587.467407 
	C786.383301,591.682556 785.600708,593.664612 781.485901,595.354004 
	C763.225220,602.850830 744.414429,605.685974 724.796082,603.291748 
	C722.598694,603.023621 719.681274,602.693970 718.163940,603.824158 
	C710.760193,609.338928 703.718567,615.339905 696.543030,621.173523 
	C696.591309,621.292969 696.613892,621.525391 696.711182,621.562622 
	C697.795410,621.977844 698.870483,622.438354 699.986877,622.745056 
	C737.664490,633.092712 773.438293,628.704956 807.307251,609.030029 
	C810.305115,607.288513 811.377075,605.342346 811.145691,601.904724 
	C807.632629,549.714966 782.456665,511.623138 735.922058,486.586761 
M738.181519,548.643494 
	C739.146973,546.345642 740.260132,544.094727 741.010925,541.728760 
	C741.348389,540.665405 741.445679,538.777100 740.828979,538.275940 
	C734.852173,533.419006 728.700500,528.777344 722.238220,523.796326 
	C697.873779,601.643982 613.515259,619.319702 567.272278,592.320496 
	C570.092712,572.301086 577.822449,554.375000 590.425720,538.511658 
	C591.501526,537.157532 593.023804,535.274109 592.787109,533.904724 
	C591.253540,525.033447 589.289490,516.236572 587.363037,506.914642 
	C558.919434,533.211731 543.856873,565.243225 542.338806,603.535950 
	C542.276306,605.113037 543.985840,607.378540 545.495117,608.308350 
	C573.394470,625.495911 603.817444,631.835999 635.978149,626.501831 
	C683.168152,618.674866 717.031921,592.364624 738.181519,548.643494 
z"/>
<path fill="#000000" opacity="1.000000" stroke="none" 
	d="
M1.000007,547.468628 
	C1.665830,547.653687 2.824494,548.240662 2.923394,548.971069 
	C4.364758,559.616028 5.423779,570.317383 7.063929,580.929565 
	C8.791503,592.107422 10.323654,603.395508 13.222920,614.294495 
	C18.291410,633.348145 23.849806,652.306274 30.144611,670.987122 
	C34.636662,684.317932 40.481331,697.210571 46.056004,710.155151 
	C56.711269,734.897278 70.536537,757.949158 85.292984,780.366821 
	C94.013206,793.614380 103.941353,806.135132 114.063683,818.372742 
	C124.740768,831.281189 135.545013,844.252563 147.652420,855.767883 
	C163.409103,870.753967 180.263290,884.626160 197.085190,898.441895 
	C218.089798,915.692810 241.293350,929.665222 265.127838,942.662903 
	C293.124176,957.930115 322.381958,970.271484 352.911224,979.190979 
	C373.416290,985.181763 394.422302,989.601929 415.384521,993.831055 
	C428.270721,996.430847 441.498718,997.331177 454.564819,999.058350 
	C455.284790,999.153564 455.927216,999.835266 456.302856,1000.621948 
	C304.406342,1001.000000 152.812668,1001.000000 1.000000,1001.000000 
	C1.000000,849.979187 1.000000,698.958252 1.000007,547.468628 
z"/>
<path fill="#000000" opacity="1.000000" stroke="none" 
	d="
M546.468628,1001.000000 
	C546.820312,1000.333679 547.602783,999.140076 548.466492,999.078186 
	C571.179077,997.449463 593.443848,993.308472 615.629211,988.242981 
	C645.306702,981.466858 673.930481,971.803589 701.825378,959.701477 
	C728.015625,948.339050 753.158569,935.040771 776.555786,918.738159 
	C793.299561,907.071594 809.533936,894.620056 825.454224,881.844177 
	C836.344543,873.104736 847.024231,863.874390 856.510803,853.667053 
	C871.095520,837.974060 884.838684,821.470703 898.456848,804.914673 
	C915.727417,783.918518 929.686890,760.709534 942.657776,736.863281 
	C957.891724,708.856384 970.389709,679.661682 979.209717,649.085754 
	C985.131226,628.557983 989.572449,607.566528 993.840149,586.612305 
	C996.398010,574.053101 997.330872,561.164062 999.058350,548.431946 
	C999.156006,547.712280 999.838379,547.071960 1000.624268,546.697388 
	C1001.000000,698.260498 1001.000000,849.520935 1001.000000,1001.000000 
	C849.645813,1001.000000 698.291565,1001.000000 546.468628,1001.000000 
z"/>
<path fill="#000000" opacity="1.000000" stroke="none" 
	d="
M454.531311,0.999992 
	C454.346252,1.665800 453.759247,2.824462 453.028717,2.923370 
	C442.383087,4.364753 431.656128,5.297890 421.073914,7.091809 
	C408.198914,9.274408 395.435883,12.123858 382.635193,14.737530 
	C358.174561,19.731962 334.575714,27.737633 311.680573,37.363564 
	C292.478394,45.436821 273.985382,55.284500 255.529297,65.012268 
	C244.169388,70.999794 233.044586,77.639008 222.571548,85.055107 
	C206.967941,96.104233 191.738266,107.735687 176.910110,119.807953 
	C165.691269,128.941727 154.773788,138.597473 144.741180,149.003342 
	C126.708023,167.707474 109.040962,186.855301 94.801270,208.730530 
	C82.597618,227.477982 70.332260,246.233368 59.210571,265.625519 
	C43.356945,293.268433 31.782663,322.898041 22.424040,353.303345 
	C15.550138,375.636047 9.844837,398.313049 6.980815,421.593811 
	C5.689370,432.091583 4.349145,442.583588 2.957923,453.068512 
	C2.840705,453.951904 2.166793,454.761444 1.375757,455.302643 
	C1.000000,303.739594 1.000000,152.479172 1.000000,1.000000 
	C152.020828,1.000000 303.041748,1.000000 454.531311,0.999992 
z"/>
<path fill="#000000" opacity="1.000000" stroke="none" 
	d="
M1001.000000,454.531342 
	C1000.334167,454.346222 999.175598,453.759186 999.076660,453.028687 
	C997.635254,442.383423 996.648560,431.667938 994.920959,421.072296 
	C992.869080,408.487610 990.564026,395.921356 987.738953,383.490265 
	C981.755798,357.162506 973.498047,331.445343 962.689392,306.771790 
	C954.005676,286.949066 943.966187,267.609344 933.095337,248.887421 
	C922.598511,230.809860 910.649109,213.528488 898.592590,196.422546 
	C891.929504,186.968887 883.866882,178.478851 876.196472,169.764496 
	C868.900330,161.475342 861.727661,153.002441 853.737000,145.414581 
	C834.652100,127.291512 815.407654,109.246216 793.266602,94.804070 
	C774.530701,82.583046 755.765808,70.331284 736.373474,59.209717 
	C708.730164,43.356277 679.180359,31.493650 648.666016,22.526081 
	C627.549988,16.320496 605.944397,11.641651 584.369080,7.194453 
	C572.759827,4.801483 560.751221,4.353906 548.931335,2.956508 
	C548.050598,2.852386 547.238586,2.166739 546.697327,1.375717 
	C698.260376,1.000000 849.520813,1.000000 1001.000000,1.000000 
	C1001.000000,152.020828 1001.000000,303.041748 1001.000000,454.531342 
z"/>
<path fill="#6A37F5" opacity="1.000000" stroke="none" 
	d="
M352.736877,273.001404 
	C352.736847,343.655396 353.100494,413.812622 352.566223,483.962952 
	C352.338135,513.911804 351.425934,543.955200 348.701019,573.761475 
	C344.823975,616.170349 336.082153,657.635376 317.158142,696.336121 
	C308.723511,713.585571 297.432068,728.776062 283.882080,742.238037 
	C273.618011,752.435486 263.223785,762.576050 252.154999,771.869446 
	C239.819901,782.226196 224.855560,785.226074 209.019943,784.028625 
	C196.081528,783.050293 189.579712,776.132812 191.108566,763.289124 
	C192.616852,750.618286 195.575806,738.120178 198.084366,724.539001 
	C203.039246,725.616394 207.541367,726.404785 211.937241,727.587952 
	C223.628860,730.734802 235.367218,732.483032 247.460327,730.128723 
	C259.155396,727.851929 267.276123,721.389343 271.977478,710.376465 
	C278.031494,696.195190 279.834778,681.171326 280.786591,666.046570 
	C281.581238,653.419678 281.871155,640.742676 281.879059,628.087585 
	C281.955444,505.942261 281.894379,383.796844 282.044525,261.651672 
	C282.050110,257.112274 280.660858,254.919586 276.652283,253.023438 
	C262.514984,246.336227 248.564392,239.254074 234.548676,232.310211 
	C226.103058,228.125946 226.107788,228.116394 227.271759,218.070480 
	C287.293732,218.070480 347.359039,218.070480 407.449493,218.070480 
	C409.961395,226.267044 409.153534,228.184586 401.637604,231.846786 
	C386.532227,239.206970 371.460236,246.636887 356.300415,253.883118 
	C353.707916,255.122299 352.486206,256.514160 352.669617,259.507996 
	C352.934052,263.824463 352.737061,268.169189 352.736877,273.001404 
z"/>
<path fill="#6B38F5" opacity="1.000000" stroke="none" 
	d="
M634.065796,578.949219 
	C580.756104,513.191956 599.552734,416.021790 673.162720,375.931274 
	C674.873474,374.999542 677.752014,374.540985 679.358582,375.334351 
	C715.086426,392.976807 744.327454,435.047607 748.400146,474.394226 
	C739.973633,470.970703 731.543396,467.693604 723.282654,464.034058 
	C722.006592,463.468750 721.232849,461.241089 720.690796,459.626434 
	C713.093201,436.993073 699.682861,418.625183 680.639160,404.247803 
	C677.754944,402.070312 675.791382,402.135620 672.886169,404.238464 
	C618.406738,443.672821 611.992920,523.828735 659.621338,571.341003 
	C660.678101,572.395203 661.965698,573.217834 663.145508,574.148560 
	C663.152283,574.735107 663.159058,575.321594 663.165833,575.908081 
	C655.719360,578.857422 648.385803,582.194153 640.730408,584.427002 
	C639.211792,584.869934 636.458130,581.078369 634.065796,578.949219 
z"/>
<path fill="#6B38F5" opacity="1.000000" stroke="none" 
	d="
M736.256958,486.753235 
	C782.456665,511.623138 807.632629,549.714966 811.145691,601.904724 
	C811.377075,605.342346 810.305115,607.288513 807.307251,609.030029 
	C773.438293,628.704956 737.664490,633.092712 699.986877,622.745056 
	C698.870483,622.438354 697.795410,621.977844 696.711182,621.562622 
	C696.613892,621.525391 696.591309,621.292969 696.543030,621.173523 
	C703.718567,615.339905 710.760193,609.338928 718.163940,603.824158 
	C719.681274,602.693970 722.598694,603.023621 724.796082,603.291748 
	C744.414429,605.685974 763.225220,602.850830 781.485901,595.354004 
	C785.600708,593.664612 786.383301,591.682556 785.523132,587.467407 
	C775.958313,540.598572 741.266479,506.418823 694.438660,498.309662 
	C679.324280,495.692322 664.249634,496.583862 649.356201,500.299530 
	C647.765198,500.696442 646.168518,501.070526 643.106873,501.809357 
	C643.705994,493.584320 644.131165,486.040497 644.953186,478.540131 
	C645.060486,477.560638 647.100281,476.299805 648.424988,476.019196 
	C678.777039,469.589478 707.957825,473.116058 736.256958,486.753235 
z"/>
<path fill="#6B38F5" opacity="1.000000" stroke="none" 
	d="
M738.052612,548.996277 
	C717.031921,592.364624 683.168152,618.674866 635.978149,626.501831 
	C603.817444,631.835999 573.394470,625.495911 545.495117,608.308350 
	C543.985840,607.378540 542.276306,605.113037 542.338806,603.535950 
	C543.856873,565.243225 558.919434,533.211731 587.363037,506.914642 
	C589.289490,516.236572 591.253540,525.033447 592.787109,533.904724 
	C593.023804,535.274109 591.501526,537.157532 590.425720,538.511658 
	C577.822449,554.375000 570.092712,572.301086 567.272278,592.320496 
	C613.515259,619.319702 697.873779,601.643982 722.238220,523.796326 
	C728.700500,528.777344 734.852173,533.419006 740.828979,538.275940 
	C741.445679,538.777100 741.348389,540.665405 741.010925,541.728760 
	C740.260132,544.094727 739.146973,546.345642 738.052612,548.996277 
z"/>
</svg>