<svg xmlns="http://www.w3.org/2000/svg" xmlns:xlink="http://www.w3.org/1999/xlink" width="500" zoomAndPan="magnify" viewBox="0 0 375 374.999991" height="500" preserveAspectRatio="xMidYMid meet" version="1.0"><defs><clipPath id="b24e9cc650"><path d="M 50.625 180 L 324 180 L 324 362 L 50.625 362 Z M 50.625 180 " clip-rule="nonzero"/></clipPath></defs><path fill="#ffffff" d="M 250.492188 67.671875 L 185.695312 67.859375 C 185.46875 67.859375 185.25 67.816406 185.039062 67.730469 C 184.832031 67.640625 184.644531 67.519531 184.484375 67.359375 C 184.324219 67.199219 184.203125 67.011719 184.113281 66.800781 C 184.027344 66.59375 183.984375 66.375 183.984375 66.148438 L 184.046875 1.878906 C 184.046875 1.652344 184.089844 1.433594 184.175781 1.222656 C 184.265625 1.015625 184.386719 0.828125 184.546875 0.667969 C 184.707031 0.507812 184.894531 0.386719 185.101562 0.296875 C 185.3125 0.210938 185.53125 0.167969 185.757812 0.167969 L 321.980469 0.230469 C 322.207031 0.230469 322.425781 0.273438 322.632812 0.359375 C 322.84375 0.445312 323.027344 0.570312 323.191406 0.730469 C 323.351562 0.890625 323.472656 1.078125 323.558594 1.285156 C 323.648438 1.496094 323.691406 1.714844 323.691406 1.941406 L 323.722656 134.054688 C 323.722656 134.285156 323.679688 134.5 323.589844 134.710938 C 323.503906 134.921875 323.382812 135.105469 323.21875 135.265625 C 323.058594 135.425781 322.875 135.550781 322.664062 135.636719 C 322.457031 135.722656 322.238281 135.765625 322.011719 135.765625 L 253.882812 135.765625 C 253.65625 135.765625 253.4375 135.722656 253.230469 135.636719 C 253.019531 135.550781 252.835938 135.425781 252.675781 135.265625 C 252.515625 135.105469 252.390625 134.921875 252.304688 134.710938 C 252.21875 134.5 252.171875 134.285156 252.171875 134.054688 L 252.203125 69.382812 C 252.203125 69.15625 252.160156 68.9375 252.074219 68.726562 C 251.988281 68.519531 251.863281 68.332031 251.703125 68.171875 C 251.542969 68.011719 251.359375 67.890625 251.148438 67.800781 C 250.9375 67.714844 250.71875 67.671875 250.492188 67.671875 Z M 250.492188 67.671875 " fill-opacity="1" fill-rule="nonzero"/><g clip-path="url(#b24e9cc650)"><path fill="#ffffff" d="M 154.992188 358.46875 C 93.617188 347.050781 54.636719 297.902344 50.5 236.621094 C 50.488281 236.425781 50.515625 236.238281 50.578125 236.054688 C 50.644531 235.871094 50.742188 235.710938 50.875 235.570312 C 51.007812 235.425781 51.164062 235.316406 51.34375 235.242188 C 51.519531 235.164062 51.707031 235.125 51.902344 235.125 L 119.4375 235.125 C 120.929688 235.125 121.726562 235.871094 121.832031 237.367188 C 122.058594 240.851562 122.691406 244.292969 123.730469 247.695312 C 130.511719 269.863281 143.980469 283.957031 164.136719 289.96875 C 183.734375 295.847656 209.835938 293.082031 226.664062 280.417969 C 242.632812 268.410156 251.03125 250.835938 251.863281 227.691406 C 252.359375 213.898438 252.410156 198.855469 252.019531 182.554688 C 252.015625 182.3125 252.054688 182.078125 252.144531 181.855469 C 252.234375 181.628906 252.367188 181.429688 252.535156 181.257812 C 252.703125 181.085938 252.902344 180.953125 253.125 180.859375 C 253.347656 180.765625 253.582031 180.71875 253.820312 180.71875 L 321.386719 180.75 C 321.691406 180.75 321.984375 180.808594 322.261719 180.921875 C 322.542969 181.035156 322.789062 181.199219 323.003906 181.414062 C 323.222656 181.625 323.386719 181.871094 323.507812 182.148438 C 323.625 182.425781 323.6875 182.71875 323.691406 183.019531 C 323.960938 197.847656 323.878906 212.820312 323.441406 227.941406 C 320.734375 320.984375 244.210938 375.082031 154.992188 358.46875 Z M 154.992188 358.46875 " fill-opacity="1" fill-rule="nonzero"/></g></svg>