<svg xmlns="http://www.w3.org/2000/svg" xmlns:xlink="http://www.w3.org/1999/xlink" width="500" zoomAndPan="magnify" viewBox="0 0 375 374.999991" height="500" preserveAspectRatio="xMidYMid meet" version="1.0"><path fill="#ffffff" d="M 225.257812 206.644531 L 305.921875 148.027344 L 305.921875 260.527344 C 305.90625 261.300781 305.78125 262.058594 305.546875 262.796875 C 305.347656 262.636719 305.171875 262.460938 304.953125 262.300781 Z M 190.972656 231.511719 C 190.71875 231.703125 190.449219 231.867188 190.164062 232.007812 C 189.328125 232.429688 188.4375 232.640625 187.5 232.640625 C 186.5625 232.640625 185.671875 232.429688 184.835938 232.007812 C 184.550781 231.867188 184.28125 231.703125 184.027344 231.511719 L 159.867188 214.007812 L 81.96875 268.421875 L 293.03125 268.421875 L 215.132812 214.007812 Z M 69.078125 148.027344 L 69.078125 260.527344 C 69.09375 261.300781 69.21875 262.058594 69.453125 262.796875 C 69.652344 262.636719 69.828125 262.460938 70.046875 262.300781 L 149.742188 206.644531 Z M 298.027344 106.578125 L 76.972656 106.578125 C 76.457031 106.578125 75.941406 106.628906 75.433594 106.730469 C 74.925781 106.832031 74.429688 106.980469 73.953125 107.179688 C 73.472656 107.378906 73.019531 107.621094 72.585938 107.910156 C 72.15625 108.199219 71.757812 108.523438 71.390625 108.890625 C 71.023438 109.257812 70.699219 109.65625 70.410156 110.085938 C 70.121094 110.519531 69.878906 110.972656 69.679688 111.453125 C 69.480469 111.929688 69.332031 112.425781 69.230469 112.933594 C 69.128906 113.441406 69.078125 113.957031 69.078125 114.472656 L 69.078125 133.480469 L 163.421875 201.949219 L 187.5 219.414062 L 211.558594 201.949219 L 305.921875 133.480469 L 305.921875 114.472656 C 305.921875 113.957031 305.871094 113.441406 305.769531 112.933594 C 305.667969 112.425781 305.519531 111.929688 305.320312 111.453125 C 305.121094 110.972656 304.878906 110.519531 304.589844 110.085938 C 304.300781 109.65625 303.976562 109.257812 303.609375 108.890625 C 303.242188 108.523438 302.84375 108.199219 302.414062 107.910156 C 301.980469 107.621094 301.527344 107.378906 301.046875 107.179688 C 300.570312 106.980469 300.074219 106.832031 299.566406 106.730469 C 299.058594 106.628906 298.542969 106.578125 298.027344 106.578125 Z M 298.027344 106.578125 " fill-opacity="1" fill-rule="nonzero"/><path fill="#ffffff" d="M 187.5 375 C 184.429688 375 181.363281 374.925781 178.300781 374.773438 C 175.234375 374.625 172.175781 374.398438 169.121094 374.097656 C 166.066406 373.796875 163.023438 373.421875 159.988281 372.96875 C 156.953125 372.519531 153.929688 371.996094 150.921875 371.398438 C 147.910156 370.796875 144.917969 370.125 141.941406 369.378906 C 138.964844 368.636719 136.007812 367.816406 133.070312 366.925781 C 130.136719 366.035156 127.222656 365.074219 124.332031 364.039062 C 121.445312 363.003906 118.582031 361.902344 115.746094 360.726562 C 112.910156 359.554688 110.105469 358.308594 107.332031 356.996094 C 104.558594 355.6875 101.820312 354.308594 99.113281 352.859375 C 96.40625 351.414062 93.738281 349.902344 91.105469 348.324219 C 88.472656 346.746094 85.882812 345.105469 83.332031 343.402344 C 80.777344 341.695312 78.269531 339.929688 75.804688 338.101562 C 73.339844 336.273438 70.921875 334.386719 68.550781 332.4375 C 66.179688 330.492188 63.855469 328.488281 61.582031 326.429688 C 59.308594 324.367188 57.085938 322.253906 54.917969 320.082031 C 52.746094 317.914062 50.632812 315.691406 48.570312 313.417969 C 46.511719 311.144531 44.507812 308.820312 42.558594 306.449219 C 40.613281 304.078125 38.726562 301.660156 36.898438 299.195312 C 35.070312 296.730469 33.304688 294.222656 31.597656 291.667969 C 29.894531 289.117188 28.253906 286.527344 26.675781 283.894531 C 25.097656 281.261719 23.585938 278.59375 22.140625 275.886719 C 20.691406 273.179688 19.3125 270.441406 18.003906 267.667969 C 16.691406 264.894531 15.445312 262.089844 14.273438 259.253906 C 13.097656 256.417969 11.996094 253.554688 10.960938 250.667969 C 9.925781 247.777344 8.964844 244.863281 8.074219 241.929688 C 7.183594 238.992188 6.363281 236.035156 5.621094 233.058594 C 4.875 230.082031 4.203125 227.089844 3.601562 224.078125 C 3.003906 221.070312 2.480469 218.046875 2.03125 215.011719 C 1.578125 211.976562 1.203125 208.933594 0.902344 205.878906 C 0.601562 202.824219 0.375 199.765625 0.226562 196.699219 C 0.0742188 193.636719 0 190.570312 0 187.5 C 0 184.429688 0.0742188 181.363281 0.226562 178.300781 C 0.375 175.234375 0.601562 172.175781 0.902344 169.121094 C 1.203125 166.066406 1.578125 163.023438 2.03125 159.988281 C 2.480469 156.953125 3.003906 153.929688 3.601562 150.921875 C 4.203125 147.910156 4.875 144.917969 5.617188 141.941406 C 6.363281 138.964844 7.183594 136.007812 8.074219 133.070312 C 8.964844 130.136719 9.925781 127.222656 10.960938 124.332031 C 11.996094 121.445312 13.097656 118.582031 14.273438 115.746094 C 15.445312 112.910156 16.691406 110.105469 18.003906 107.332031 C 19.3125 104.558594 20.691406 101.820312 22.140625 99.113281 C 23.585938 96.40625 25.097656 93.738281 26.675781 91.105469 C 28.253906 88.472656 29.894531 85.882812 31.597656 83.332031 C 33.304688 80.777344 35.070312 78.269531 36.898438 75.804688 C 38.726562 73.339844 40.613281 70.921875 42.558594 68.550781 C 44.507812 66.179688 46.511719 63.855469 48.570312 61.582031 C 50.632812 59.308594 52.746094 57.085938 54.917969 54.917969 C 57.085938 52.746094 59.308594 50.632812 61.582031 48.570312 C 63.855469 46.511719 66.179688 44.507812 68.550781 42.558594 C 70.921875 40.613281 73.339844 38.726562 75.804688 36.898438 C 78.269531 35.070312 80.777344 33.304688 83.332031 31.597656 C 85.882812 29.894531 88.472656 28.253906 91.105469 26.675781 C 93.738281 25.097656 96.40625 23.585938 99.113281 22.140625 C 101.820312 20.691406 104.558594 19.3125 107.332031 18.003906 C 110.105469 16.691406 112.910156 15.445312 115.746094 14.273438 C 118.582031 13.097656 121.445312 11.996094 124.332031 10.960938 C 127.222656 9.925781 130.136719 8.964844 133.070312 8.074219 C 136.007812 7.183594 138.964844 6.363281 141.941406 5.617188 C 144.917969 4.875 147.910156 4.203125 150.921875 3.601562 C 153.929688 3.003906 156.953125 2.480469 159.988281 2.03125 C 163.023438 1.578125 166.066406 1.203125 169.121094 0.902344 C 172.175781 0.601562 175.234375 0.375 178.300781 0.226562 C 181.363281 0.0742188 184.429688 0 187.5 0 C 190.570312 0 193.636719 0.0742188 196.699219 0.226562 C 199.765625 0.375 202.824219 0.601562 205.878906 0.902344 C 208.933594 1.203125 211.976562 1.578125 215.011719 2.03125 C 218.046875 2.480469 221.070312 3.003906 224.078125 3.601562 C 227.089844 4.203125 230.082031 4.875 233.058594 5.617188 C 236.035156 6.363281 238.992188 7.183594 241.929688 8.074219 C 244.863281 8.964844 247.777344 9.925781 250.667969 10.960938 C 253.554688 11.996094 256.417969 13.097656 259.253906 14.273438 C 262.089844 15.445312 264.890625 16.691406 267.667969 18.003906 C 270.441406 19.3125 273.179688 20.691406 275.886719 22.140625 C 278.59375 23.585938 281.261719 25.097656 283.894531 26.675781 C 286.527344 28.253906 289.117188 29.894531 291.667969 31.597656 C 294.222656 33.304688 296.730469 35.070312 299.195312 36.898438 C 301.660156 38.726562 304.078125 40.613281 306.449219 42.558594 C 308.820312 44.507812 311.144531 46.511719 313.417969 48.570312 C 315.691406 50.632812 317.914062 52.746094 320.082031 54.917969 C 322.253906 57.085938 324.367188 59.308594 326.429688 61.582031 C 328.488281 63.855469 330.492188 66.179688 332.4375 68.550781 C 334.386719 70.921875 336.273438 73.339844 338.101562 75.804688 C 339.929688 78.269531 341.695312 80.777344 343.402344 83.332031 C 345.105469 85.882812 346.746094 88.472656 348.324219 91.105469 C 349.902344 93.738281 351.414062 96.40625 352.859375 99.113281 C 354.308594 101.820312 355.6875 104.558594 356.996094 107.332031 C 358.308594 110.105469 359.554688 112.910156 360.726562 115.746094 C 361.902344 118.582031 363.003906 121.445312 364.039062 124.332031 C 365.074219 127.222656 366.035156 130.136719 366.925781 133.070312 C 367.816406 136.007812 368.636719 138.964844 369.378906 141.941406 C 370.125 144.917969 370.796875 147.910156 371.398438 150.921875 C 371.996094 153.929688 372.519531 156.953125 372.96875 159.988281 C 373.421875 163.023438 373.796875 166.066406 374.097656 169.121094 C 374.398438 172.175781 374.625 175.234375 374.773438 178.300781 C 374.925781 181.363281 375 184.429688 375 187.5 C 374.996094 190.566406 374.917969 193.632812 374.765625 196.695312 C 374.609375 199.761719 374.382812 202.820312 374.078125 205.871094 C 373.773438 208.925781 373.394531 211.96875 372.941406 215 C 372.488281 218.035156 371.960938 221.054688 371.363281 224.0625 C 370.761719 227.074219 370.085938 230.0625 369.339844 233.039062 C 368.589844 236.015625 367.769531 238.96875 366.878906 241.902344 C 365.984375 244.839844 365.019531 247.75 363.984375 250.636719 C 362.949219 253.527344 361.84375 256.386719 360.667969 259.21875 C 359.492188 262.054688 358.25 264.855469 356.9375 267.628906 C 355.625 270.402344 354.242188 273.140625 352.796875 275.84375 C 351.347656 278.546875 349.835938 281.214844 348.257812 283.847656 C 346.679688 286.476562 345.039062 289.066406 343.332031 291.617188 C 341.628906 294.167969 339.863281 296.675781 338.035156 299.136719 C 336.207031 301.601562 334.320312 304.019531 332.371094 306.390625 C 330.425781 308.761719 328.421875 311.082031 326.363281 313.355469 C 324.304688 315.628906 322.1875 317.851562 320.019531 320.019531 C 317.851562 322.1875 315.628906 324.304688 313.355469 326.363281 C 311.082031 328.421875 308.761719 330.425781 306.390625 332.371094 C 304.019531 334.320312 301.601562 336.207031 299.136719 338.035156 C 296.675781 339.863281 294.167969 341.628906 291.617188 343.332031 C 289.066406 345.039062 286.476562 346.679688 283.847656 348.257812 C 281.214844 349.835938 278.546875 351.347656 275.84375 352.796875 C 273.140625 354.242188 270.402344 355.625 267.628906 356.9375 C 264.855469 358.25 262.054688 359.492188 259.21875 360.667969 C 256.386719 361.84375 253.527344 362.949219 250.636719 363.984375 C 247.75 365.019531 244.839844 365.984375 241.902344 366.878906 C 238.96875 367.769531 236.015625 368.589844 233.039062 369.339844 C 230.0625 370.085938 227.074219 370.761719 224.0625 371.363281 C 221.054688 371.960938 218.035156 372.488281 215 372.941406 C 211.96875 373.394531 208.925781 373.773438 205.871094 374.078125 C 202.820312 374.382812 199.761719 374.609375 196.695312 374.765625 C 193.632812 374.917969 190.566406 374.996094 187.5 375 Z M 187.5 11.84375 C 184.625 11.84375 181.753906 11.914062 178.882812 12.054688 C 176.007812 12.195312 173.144531 12.40625 170.28125 12.6875 C 167.421875 12.96875 164.570312 13.320312 161.726562 13.742188 C 158.882812 14.164062 156.050781 14.65625 153.230469 15.21875 C 150.410156 15.777344 147.605469 16.40625 144.820312 17.105469 C 142.03125 17.804688 139.261719 18.570312 136.507812 19.40625 C 133.757812 20.242188 131.03125 21.140625 128.324219 22.109375 C 125.617188 23.078125 122.933594 24.113281 120.277344 25.214844 C 117.621094 26.3125 114.996094 27.476562 112.398438 28.707031 C 109.796875 29.9375 107.230469 31.226562 104.695312 32.582031 C 102.160156 33.9375 99.660156 35.355469 97.195312 36.832031 C 94.726562 38.3125 92.300781 39.847656 89.910156 41.445312 C 87.519531 43.042969 85.167969 44.699219 82.859375 46.410156 C 80.550781 48.121094 78.285156 49.890625 76.0625 51.714844 C 73.839844 53.539062 71.664062 55.414062 69.535156 57.347656 C 67.40625 59.277344 65.324219 61.257812 63.292969 63.292969 C 61.257812 65.324219 59.277344 67.40625 57.347656 69.535156 C 55.414062 71.664062 53.539062 73.839844 51.714844 76.0625 C 49.890625 78.285156 48.121094 80.550781 46.410156 82.859375 C 44.699219 85.167969 43.042969 87.519531 41.445312 89.910156 C 39.847656 92.300781 38.3125 94.726562 36.832031 97.195312 C 35.355469 99.660156 33.9375 102.160156 32.582031 104.695312 C 31.226562 107.230469 29.9375 109.796875 28.707031 112.398438 C 27.476562 114.996094 26.3125 117.621094 25.214844 120.277344 C 24.113281 122.933594 23.078125 125.617188 22.109375 128.324219 C 21.140625 131.03125 20.242188 133.757812 19.40625 136.507812 C 18.570312 139.261719 17.804688 142.03125 17.105469 144.820312 C 16.40625 147.605469 15.777344 150.410156 15.21875 153.230469 C 14.65625 156.050781 14.164062 158.882812 13.742188 161.726562 C 13.320312 164.570312 12.96875 167.421875 12.6875 170.28125 C 12.40625 173.144531 12.195312 176.007812 12.054688 178.878906 C 11.914062 181.753906 11.84375 184.625 11.84375 187.5 C 11.84375 190.375 11.914062 193.246094 12.054688 196.117188 C 12.195312 198.992188 12.40625 201.855469 12.6875 204.71875 C 12.96875 207.578125 13.320312 210.429688 13.742188 213.273438 C 14.164062 216.117188 14.65625 218.949219 15.21875 221.769531 C 15.777344 224.589844 16.40625 227.394531 17.105469 230.179688 C 17.804688 232.96875 18.570312 235.738281 19.40625 238.492188 C 20.242188 241.242188 21.140625 243.96875 22.109375 246.675781 C 23.078125 249.382812 24.113281 252.066406 25.214844 254.722656 C 26.3125 257.378906 27.476562 260.003906 28.707031 262.601562 C 29.9375 265.203125 31.226562 267.769531 32.582031 270.304688 C 33.9375 272.839844 35.355469 275.339844 36.832031 277.804688 C 38.3125 280.273438 39.847656 282.699219 41.445312 285.089844 C 43.042969 287.480469 44.699219 289.832031 46.410156 292.140625 C 48.121094 294.449219 49.890625 296.714844 51.714844 298.9375 C 53.539062 301.160156 55.414062 303.335938 57.347656 305.464844 C 59.277344 307.59375 61.257812 309.675781 63.292969 311.707031 C 65.324219 313.742188 67.40625 315.722656 69.535156 317.652344 C 71.664062 319.585938 73.839844 321.460938 76.0625 323.285156 C 78.285156 325.109375 80.550781 326.878906 82.859375 328.589844 C 85.167969 330.300781 87.519531 331.957031 89.910156 333.554688 C 92.300781 335.152344 94.726562 336.6875 97.195312 338.167969 C 99.660156 339.644531 102.160156 341.0625 104.695312 342.417969 C 107.230469 343.773438 109.796875 345.0625 112.398438 346.292969 C 114.996094 347.523438 117.621094 348.6875 120.277344 349.785156 C 122.933594 350.886719 125.617188 351.921875 128.324219 352.890625 C 131.03125 353.859375 133.757812 354.757812 136.507812 355.59375 C 139.261719 356.429688 142.03125 357.195312 144.820312 357.894531 C 147.605469 358.59375 150.410156 359.222656 153.230469 359.78125 C 156.050781 360.34375 158.882812 360.835938 161.726562 361.257812 C 164.570312 361.679688 167.421875 362.03125 170.28125 362.3125 C 173.144531 362.59375 176.007812 362.804688 178.882812 362.945312 C 181.753906 363.085938 184.625 363.15625 187.5 363.15625 C 190.375 363.15625 193.246094 363.085938 196.117188 362.945312 C 198.992188 362.804688 201.855469 362.59375 204.71875 362.3125 C 207.578125 362.03125 210.429688 361.679688 213.273438 361.257812 C 216.117188 360.835938 218.949219 360.34375 221.769531 359.78125 C 224.589844 359.222656 227.394531 358.59375 230.179688 357.894531 C 232.96875 357.195312 235.738281 356.429688 238.492188 355.59375 C 241.242188 354.757812 243.96875 353.859375 246.675781 352.890625 C 249.382812 351.921875 252.066406 350.886719 254.722656 349.785156 C 257.378906 348.6875 260.003906 347.523438 262.601562 346.292969 C 265.203125 345.0625 267.769531 343.773438 270.304688 342.417969 C 272.839844 341.0625 275.339844 339.644531 277.804688 338.167969 C 280.273438 336.6875 282.699219 335.152344 285.089844 333.554688 C 287.480469 331.957031 289.832031 330.300781 292.140625 328.589844 C 294.449219 326.878906 296.714844 325.109375 298.9375 323.285156 C 301.160156 321.460938 303.335938 319.585938 305.464844 317.652344 C 307.59375 315.722656 309.675781 313.742188 311.707031 311.707031 C 313.742188 309.675781 315.722656 307.59375 317.652344 305.464844 C 319.585938 303.335938 321.460938 301.160156 323.285156 298.9375 C 325.109375 296.714844 326.878906 294.449219 328.589844 292.140625 C 330.300781 289.832031 331.957031 287.480469 333.554688 285.089844 C 335.152344 282.699219 336.6875 280.273438 338.167969 277.804688 C 339.644531 275.339844 341.0625 272.839844 342.417969 270.304688 C 343.773438 267.769531 345.0625 265.203125 346.292969 262.601562 C 347.523438 260.003906 348.6875 257.378906 349.785156 254.722656 C 350.886719 252.066406 351.921875 249.382812 352.890625 246.675781 C 353.859375 243.96875 354.757812 241.242188 355.59375 238.492188 C 356.429688 235.738281 357.195312 232.96875 357.894531 230.179688 C 358.59375 227.394531 359.222656 224.589844 359.78125 221.769531 C 360.34375 218.949219 360.835938 216.117188 361.257812 213.273438 C 361.679688 210.429688 362.03125 207.578125 362.3125 204.71875 C 362.59375 201.855469 362.804688 198.992188 362.945312 196.117188 C 363.085938 193.246094 363.15625 190.375 363.15625 187.5 C 363.15625 184.625 363.082031 181.753906 362.9375 178.882812 C 362.792969 176.015625 362.578125 173.148438 362.292969 170.289062 C 362.007812 167.429688 361.652344 164.578125 361.226562 161.738281 C 360.804688 158.894531 360.308594 156.0625 359.746094 153.246094 C 359.183594 150.429688 358.550781 147.625 357.851562 144.839844 C 357.148438 142.050781 356.382812 139.28125 355.546875 136.535156 C 354.710938 133.785156 353.804688 131.058594 352.835938 128.351562 C 351.867188 125.644531 350.832031 122.964844 349.730469 120.3125 C 348.628906 117.65625 347.460938 115.03125 346.230469 112.433594 C 345 109.835938 343.707031 107.273438 342.351562 104.738281 C 340.996094 102.203125 339.578125 99.707031 338.101562 97.242188 C 336.621094 94.777344 335.085938 92.351562 333.488281 89.960938 C 331.890625 87.570312 330.234375 85.222656 328.523438 82.914062 C 326.808594 80.609375 325.042969 78.34375 323.21875 76.121094 C 321.394531 73.902344 319.519531 71.726562 317.589844 69.597656 C 315.660156 67.46875 313.675781 65.386719 311.644531 63.355469 C 309.613281 61.324219 307.53125 59.339844 305.402344 57.410156 C 303.273438 55.480469 301.097656 53.605469 298.878906 51.78125 C 296.65625 49.957031 294.390625 48.191406 292.085938 46.476562 C 289.777344 44.765625 287.429688 43.109375 285.039062 41.511719 C 282.648438 39.914062 280.222656 38.378906 277.757812 36.898438 C 275.292969 35.421875 272.796875 34.003906 270.261719 32.648438 C 267.726562 31.292969 265.164062 30 262.566406 28.769531 C 259.96875 27.539062 257.34375 26.371094 254.6875 25.269531 C 252.035156 24.167969 249.355469 23.132812 246.648438 22.164062 C 243.941406 21.195312 241.214844 20.289062 238.464844 19.453125 C 235.71875 18.617188 232.949219 17.851562 230.160156 17.148438 C 227.375 16.449219 224.570312 15.816406 221.753906 15.253906 C 218.9375 14.691406 216.105469 14.195312 213.261719 13.773438 C 210.421875 13.347656 207.570312 12.992188 204.710938 12.707031 C 201.851562 12.421875 198.984375 12.207031 196.117188 12.0625 C 193.246094 11.917969 190.375 11.84375 187.5 11.84375 Z M 187.5 11.84375 " fill-opacity="1" fill-rule="nonzero"/></svg>