<svg xmlns="http://www.w3.org/2000/svg" xmlns:xlink="http://www.w3.org/1999/xlink" width="500" zoomAndPan="magnify" viewBox="0 0 375 374.999991" height="500" preserveAspectRatio="xMidYMid meet" version="1.0"><path fill="#ffffff" d="M 187.523438 10.835938 C 90.097656 10.835938 10.839844 90.097656 10.839844 187.519531 C 10.839844 284.945312 90.097656 364.203125 187.523438 364.203125 C 284.945312 364.203125 364.207031 284.945312 364.207031 187.519531 C 364.207031 90.097656 284.945312 10.835938 187.523438 10.835938 Z M 187.523438 375.050781 C 84.125 375.050781 0 290.925781 0 187.519531 C 0 84.117188 84.125 -0.00390625 187.523438 -0.00390625 C 290.925781 -0.00390625 375.050781 84.117188 375.050781 187.519531 C 375.050781 290.925781 290.925781 375.050781 187.523438 375.050781 " fill-opacity="1" fill-rule="nonzero"/><path fill="#ffffff" d="M 279.859375 187.519531 L 136.230469 104.59375 L 136.230469 270.449219 L 279.859375 187.519531 L 136.230469 104.59375 L 136.230469 270.449219 L 279.859375 187.519531 " fill-opacity="1" fill-rule="nonzero"/></svg>