<svg xmlns="http://www.w3.org/2000/svg" xmlns:xlink="http://www.w3.org/1999/xlink" width="500" zoomAndPan="magnify" viewBox="0 0 375 374.999991" height="500" preserveAspectRatio="xMidYMid meet" version="1.0"><defs><clipPath id="abb3fea87b"><path d="M 88.929688 88.929688 L 286.179688 88.929688 L 286.179688 286.179688 L 88.929688 286.179688 Z M 88.929688 88.929688 " clip-rule="nonzero"/></clipPath></defs><path fill="#ffffff" d="M 187.5 375 C 83.910156 375 0 290.507812 0 187.5 C 0 84.492188 83.910156 0 187.5 0 C 291.089844 0 375 83.910156 375 187.5 C 375 291.089844 290.507812 375 187.5 375 Z M 187.5 11.574219 C 90.277344 11.574219 11.574219 90.277344 11.574219 187.5 C 11.574219 284.722656 90.277344 363.425781 187.5 363.425781 C 284.722656 363.425781 363.425781 284.722656 363.425781 187.5 C 363.425781 90.277344 284.144531 11.574219 187.5 11.574219 Z M 187.5 11.574219 " fill-opacity="1" fill-rule="nonzero"/><g clip-path="url(#abb3fea87b)"><path fill="#ffffff" d="M 286.039062 169.242188 L 235.996094 169.242188 C 238.136719 174.921875 239.3125 181.070312 239.3125 187.496094 C 239.3125 216.109375 216.078125 239.332031 187.472656 239.332031 C 158.859375 239.332031 135.632812 216.109375 135.632812 187.496094 C 135.632812 181.070312 136.800781 174.921875 138.941406 169.242188 L 88.90625 169.242188 L 88.90625 256.125 C 88.90625 272.65625 102.304688 286.0625 118.839844 286.0625 L 256.105469 286.0625 C 272.632812 286.0625 286.039062 272.65625 286.039062 256.125 Z M 187.472656 145.878906 C 210.441406 145.878906 229.089844 164.523438 229.089844 187.496094 C 229.089844 210.464844 210.441406 229.113281 187.472656 229.113281 C 164.503906 229.113281 145.855469 210.464844 145.855469 187.496094 C 145.855469 164.523438 164.503906 145.878906 187.472656 145.878906 Z M 88.90625 159.019531 L 144.15625 159.019531 C 153.433594 144.949219 169.375 135.65625 187.472656 135.65625 C 205.566406 135.65625 221.511719 144.949219 230.785156 159.019531 L 286.039062 159.019531 L 286.039062 118.863281 C 286.039062 102.332031 272.632812 88.929688 256.105469 88.929688 L 118.839844 88.929688 C 102.304688 88.929688 88.90625 102.332031 88.90625 118.863281 Z M 245.882812 117.402344 C 252.328125 117.402344 257.566406 122.636719 257.566406 129.085938 C 257.566406 135.53125 252.328125 140.765625 245.882812 140.765625 C 239.4375 140.765625 234.199219 135.53125 234.199219 129.085938 C 234.199219 122.636719 239.4375 117.402344 245.882812 117.402344 Z M 245.882812 117.402344 " fill-opacity="1" fill-rule="evenodd"/></g></svg>