<svg xmlns="http://www.w3.org/2000/svg" xmlns:xlink="http://www.w3.org/1999/xlink" width="500" zoomAndPan="magnify" viewBox="0 0 375 374.999991" height="500" preserveAspectRatio="xMidYMid meet" version="1.0"><path fill="#ffffff" d="M 236.058594 235.230469 C 232.25 232.171875 225.554688 232.902344 220.601562 236.933594 C 216.882812 239.871094 213.011719 242.59375 208.984375 245.09375 C 192.238281 255.691406 184.289062 240.351562 184.289062 240.351562 L 159.476562 202.859375 L 136.207031 164.375 C 136.207031 164.375 125.757812 150.609375 142.5 140.015625 C 146.476562 137.445312 150.585938 135.105469 154.828125 133.003906 C 160.574219 130.238281 164.113281 124.511719 162.980469 119.753906 C 160.027344 107.371094 154.210938 85.429688 147.296875 72.394531 C 146.214844 70.367188 143.507812 69.597656 140.632812 70.53125 L 131.539062 73.460938 C 128.507812 74.421875 125.730469 75.875 123.210938 77.8125 C 116.046875 83.433594 102.675781 96.257812 102.199219 114.050781 C 102.007812 120.925781 101.84375 129.734375 103.074219 140.410156 C 104.382812 151.867188 107.304688 165.460938 113.507812 181.089844 C 119.304688 194.234375 125.953125 206.933594 133.453125 219.191406 L 133.527344 219.3125 C 141.394531 231.335938 150.027344 242.78125 159.425781 253.648438 C 170.894531 265.945312 181.925781 274.40625 191.722656 280.492188 C 200.839844 286.171875 208.878906 289.808594 215.167969 292.5625 C 231.476562 299.75 248.769531 293.15625 256.914062 289.082031 C 259.757812 287.652344 262.269531 285.777344 264.449219 283.453125 L 270.972656 276.464844 C 273.035156 274.265625 273.5 271.484375 272.132812 269.644531 C 263.328125 257.855469 245.992188 243.199219 236.058594 235.230469 Z M 236.058594 235.230469 " fill-opacity="1" fill-rule="nonzero"/><path fill="#ffffff" d="M 187.5 0 C 84.109375 0 0 84.109375 0 187.496094 C 0 290.882812 84.109375 374.996094 187.5 374.996094 C 290.890625 374.996094 374.996094 290.882812 374.996094 187.496094 C 374.996094 84.109375 290.882812 0 187.5 0 Z M 187.5 363.628906 C 90.375 363.628906 11.371094 284.617188 11.371094 187.5 C 11.371094 90.382812 90.382812 11.371094 187.5 11.371094 C 284.617188 11.371094 363.628906 90.382812 363.628906 187.5 C 363.628906 284.617188 284.617188 363.628906 187.5 363.628906 Z M 187.5 363.628906 " fill-opacity="1" fill-rule="nonzero"/></svg>